<?xml version="1.0" encoding="UTF-8" standalone="no" ?>
<!DOCTYPE svg PUBLIC "-//W3C//DTD SVG 1.1//EN" "http://www.w3.org/Graphics/SVG/1.1/DTD/svg11.dtd">
<svg xmlns="http://www.w3.org/2000/svg" xmlns:xlink="http://www.w3.org/1999/xlink" version="1.1" width="1080" height="1080" viewBox="0 0 1080 1080" xml:space="preserve">
<desc>Created with Fabric.js 5.2.4</desc>
<defs>
</defs>
<g transform="matrix(1 0 0 1 540 540)" id="0af404f7-a538-447a-a81a-74d510afb948"  >
</g>
<g transform="matrix(1 0 0 1 540 540)" id="5175b17e-ad9a-4754-a6b3-2fe8b0316222"  >
<rect style="stroke: none; stroke-width: 1; stroke-dasharray: none; stroke-linecap: butt; stroke-dashoffset: 0; stroke-linejoin: miter; stroke-miterlimit: 4; fill: rgb(255,255,255); fill-rule: nonzero; opacity: 1; visibility: hidden;" vector-effect="non-scaling-stroke"  x="-540" y="-540" rx="0" ry="0" width="1080" height="1080" />
</g>
<g transform="matrix(1.31 0 0 1.31 539.74 540.26)"  >
<g style="" vector-effect="non-scaling-stroke"   >
		<g transform="matrix(1 0 0 1 -353.98 -353.98)"  >
<rect style="stroke: none; stroke-width: 1; stroke-dasharray: none; stroke-linecap: butt; stroke-dashoffset: 0; stroke-linejoin: miter; stroke-miterlimit: 4; fill: rgb(255,255,255); fill-opacity: 0; fill-rule: nonzero; opacity: 1;" vector-effect="non-scaling-stroke"  x="-50" y="-50" rx="0" ry="0" width="100" height="100" />
</g>
		<g transform="matrix(8 0 0 8 4.06 4.06)"  >
<circle style="stroke: none; stroke-width: 1; stroke-dasharray: none; stroke-linecap: butt; stroke-dashoffset: 0; stroke-linejoin: miter; stroke-miterlimit: 4; fill: rgb(255,255,255); fill-rule: nonzero; opacity: 1;" vector-effect="non-scaling-stroke"  cx="0" cy="0" r="50" />
</g>
		<g transform="matrix(1 0 0 1 -130.28 -27.97)"  >
<path style="stroke: none; stroke-width: 1; stroke-dasharray: none; stroke-linecap: butt; stroke-dashoffset: 0; stroke-linejoin: miter; stroke-miterlimit: 4; fill: rgb(12,12,12); fill-rule: nonzero; opacity: 1;" vector-effect="non-scaling-stroke"  paint-order="stroke"  transform=" translate(-273.69, -376.01)" d="M 382.679 567.305 L 303.13899999999995 558.928 L 224.90599999999995 419.93899999999996 L 211.28599999999994 549.2539999999999 L 146.10699999999994 542.3899999999999 L 183.77599999999995 184.71799999999985 L 283.33599999999996 195.20299999999986 Q 319.76399999999995 199.03999999999985 347.3829999999999 212.71799999999985 Q 375.0019999999999 226.39599999999984 389.05999999999995 253.03399999999985 Q 403.11599999999993 279.68399999999986 398.6039999999999 322.52599999999984 Q 396.14399999999995 345.87699999999984 385.7099999999999 369.81599999999986 Q 375.2749999999999 393.7549999999999 355.13199999999995 411.34199999999987 Q 334.9889999999999 428.93899999999985 303.3879999999999 433.39299999999986 Z M 228.31 387.608 L 255.5 390.472 Q 278.084 392.84999999999997 294.47 383.817 Q 310.858 374.773 320.50800000000004 358.283 Q 330.15900000000005 341.783 332.26700000000005 321.774 Q 335.9150000000001 287.136 321.80000000000007 268.394 Q 307.69500000000005 249.654 269.2080000000001 245.601 L 243.55000000000007 242.898 Z" stroke-linecap="round" />
</g>
		<g transform="matrix(0.99 0.1 -0.1 0.99 -118.88 -26.1)"  >
<rect style="stroke: none; stroke-width: 1; stroke-dasharray: none; stroke-linecap: butt; stroke-dashoffset: 0; stroke-linejoin: miter; stroke-miterlimit: 4; fill: none; fill-rule: nonzero; opacity: 1;" vector-effect="non-scaling-stroke"  x="-118.94" y="-179.825" rx="0" ry="0" width="237.88" height="359.65" />
</g>
		<g transform="matrix(1 0 0 1 123.26 -1.75)"  >
<path style="stroke: none; stroke-width: 1; stroke-dasharray: none; stroke-linecap: butt; stroke-dashoffset: 0; stroke-linejoin: miter; stroke-miterlimit: 4; fill: rgb(12,12,12); fill-rule: nonzero; opacity: 1;" vector-effect="non-scaling-stroke"  paint-order="stroke"  transform=" translate(-527.24, -402.23)" d="M 629.01 600.524 L 478.21 386.954 L 464.46 364.752 L 461.78299999999996 414.797 L 445.03 573.8770000000001 L 381.919 567.2310000000001 L 420.236 203.40300000000013 L 425.87399999999997 203.99700000000013 L 573.958 418.8280000000001 L 589.4599999999999 444.0710000000001 L 592.055 394.79100000000005 L 609.457 229.55500000000006 L 672.568 236.20200000000006 L 634.1419999999999 601.0640000000001 Z" stroke-linecap="round" />
</g>
		<g transform="matrix(0.99 0.1 -0.1 0.99 125.57 0.09)"  >
<rect style="stroke: none; stroke-width: 1; stroke-dasharray: none; stroke-linecap: butt; stroke-dashoffset: 0; stroke-linejoin: miter; stroke-miterlimit: 4; fill: none; fill-rule: nonzero; opacity: 1;" vector-effect="non-scaling-stroke"  x="-127.19" y="-186.535" rx="0" ry="0" width="254.38" height="373.07" />
</g>
</g>
</g>
</svg>